<?xml version="1.0" encoding="utf-8"?>
<!-- Generator: Adobe Illustrator 27.6.0, SVG Export Plug-In . SVG Version: 6.00 Build 0)  -->
<svg version="1.1" id="Layer_1" xmlns="http://www.w3.org/2000/svg" xmlns:xlink="http://www.w3.org/1999/xlink" x="0px" y="0px"
	 viewBox="0 0 1366 768" style="enable-background:new 0 0 1366 768;" xml:space="preserve">
<style type="text/css">
	.st0{fill:#F5C32D;}
	.st1{fill:#1EBBCF;}
	.st2{fill:#152A3B;}
	.st3{fill:#D0EB3D;}
	.st4{fill:none;}
	.st5{opacity:0.7;}
	.st6{fill:#5CD47C;}
</style>
<g>
	<rect x="748.3" y="393.57" class="st0" width="69" height="4"/>
	<path class="st0" d="M816.8,394.07v3h-68v-3H816.8 M817.8,393.07h-70v5h70V393.07L817.8,393.07z"/>
</g>
<g>
	<polygon class="st1" points="765.86,411.71 766.71,403.37 784.75,403.1 783.9,411.71 	"/>
	<path class="st1" d="M784.2,403.61l-0.75,7.6h-17.03l0.75-7.35L784.2,403.61 M785.3,402.6l-19.05,0.29l-0.95,9.33h19.05
		L785.3,402.6L785.3,402.6z"/>
</g>
<g>
	<polygon class="st2" points="558.86,339.07 564.26,283.66 728.57,281.69 724.25,339.07 	"/>
	<path class="st2" d="M728.03,282.2l-4.24,56.37H559.41l5.31-54.42L728.03,282.2 M729.11,281.19l-165.3,1.97l-5.5,56.41h166.41
		L729.11,281.19L729.11,281.19z"/>
</g>
<g id="_x32_nd_row">
	<polygon class="st1" points="801.37,383.07 802.25,376.07 811.24,376.07 810.36,383.07 	"/>
	<path class="st1" d="M810.67,376.57l-0.75,6h-7.98l0.75-6H810.67 M811.8,375.57h-10l-1,8h10L811.8,375.57L811.8,375.57z"/>
</g>
<g>
	<polygon class="st2" points="893,305 727,305 727,300 897,300 	"/>
</g>
<g>
	<rect x="607.3" y="394.07" class="st1" width="9" height="1"/>
	<polygon class="st1" points="616.8,393.57 606.8,393.57 606.8,395.57 616.8,395.57 616.8,393.57 	"/>
</g>
<g>
	<polygon class="st2" points="797.8,388.57 599.8,388.57 599.8,375.57 799.8,375.57 	"/>
</g>
<g>
	<rect x="623.3" y="386.07" class="st1" width="169" height="7"/>
	<path class="st1" d="M791.8,386.57v6h-168v-6H791.8 M792.8,385.57h-170v8h170V385.57L792.8,385.57z"/>
</g>
<g>
	<polygon class="st2" points="625.89,339.38 630.59,304.63 774.76,303.39 771.01,339.38 	"/>
	<path class="st2" d="M774.21,303.89l-3.65,34.99h-144.1l4.56-33.76L774.21,303.89 M775.32,302.88l-145.17,1.25l-4.83,35.75h146.14
		L775.32,302.88L775.32,302.88z"/>
</g>
<g>
	<polygon class="st2" points="608.2,283.41 678.22,283.07 658.66,414.07 634.3,414.07 634.3,418.07 658.06,418.07 648.41,482.73 
		576.39,483.07 	"/>
	<path class="st2" d="M677.64,283.58l-19.41,129.99H634.8h-1v1v3v1h1h22.68l-9.51,63.66l-71,0.33l31.65-198.66L677.64,283.58
		 M678.8,282.57l-71.03,0.34L575.8,483.57l73.03-0.34l9.81-65.66H634.8v-3h24.29L678.8,282.57L678.8,282.57z"/>
</g>
<g>
	<polygon class="st3" points="791.8,321.57 711.8,321.57 713.8,313.57 793.8,313.57 	"/>
</g>
<g>
	<polygon class="st3" points="704.8,321.57 684.8,321.57 686.8,313.57 706.8,313.57 	"/>
</g>
<g id="_x31_st_Row">
	<polygon class="st1" points="790.39,331.07 793.24,312.07 807.22,312.07 804.37,331.07 	"/>
	<path class="st1" d="M806.64,312.57l-2.7,18h-12.98l2.7-18H806.64 M807.8,311.57h-15l-3,20h15L807.8,311.57L807.8,311.57z"/>
</g>
<g>
	<rect x="717.8" y="279.57" class="st4" width="180" height="20"/>
</g>
<g id="_x31_st_Row_00000172432066849263098580000013550983400435805585_">
	<polygon class="st1" points="814.02,402.07 816.87,383.07 830.86,383.07 828.01,402.07 	"/>
	<path class="st1" d="M830.28,383.57l-2.7,18H814.6l2.7-18H830.28 M831.44,382.57h-15l-3,20h15L831.44,382.57L831.44,382.57z"/>
</g>
<g id="_x31_st_Row_00000087404718813351355070000001515739046936197273_">
	<polygon class="st1" points="822.64,299.5 825.49,280.5 839.48,280.5 836.63,299.5 	"/>
	<path class="st1" d="M838.9,281l-2.7,18h-12.98l2.7-18H838.9 M840.06,280h-15l-3,20h15L840.06,280L840.06,280z"/>
</g>
<g id="_x31_st_Row_00000159446480765374509520000016215939965057125810_" class="st5">
	<polygon class="st1" points="806.68,296.07 807.79,291.07 813.44,291.07 812.33,296.07 	"/>
	<path class="st1" d="M812.81,291.57l-0.89,4h-4.62l0.89-4H812.81 M814.06,290.57h-6.67l-1.33,6h6.67L814.06,290.57L814.06,290.57z"
		/>
</g>
<g>
	<polygon class="st6" points="664.8,444.57 624.8,444.57 626.8,436.57 666.8,436.57 	"/>
</g>
<g>
	<polygon class="st6" points="619.8,444.57 609.8,444.57 611.8,436.57 621.8,436.57 	"/>
</g>
<g>
	<polygon class="st2" points="631.03,378 769.03,376.69 763.38,414.07 634.3,414.07 634.3,415.63 630.12,415.68 	"/>
	<path class="st2" d="M768.44,377.2l-5.5,36.37H634.8h-1v1v0.57l-3.17,0.04l0.89-36.68L768.44,377.2 M769.61,376.19l-139.06,1.32
		l-0.94,38.68l5.2-0.06v-1.55h129L769.61,376.19L769.61,376.19z"/>
</g>
</svg>
